<svg width="28" height="24" viewBox="0 0 28 24" fill="none" xmlns="http://www.w3.org/2000/svg">
<path d="M11.3334 17.3333V16H2.01341L2.00008 21.3333C2.00008 22.8133 3.18675 24 4.66675 24H23.3334C24.8134 24 26.0001 22.8133 26.0001 21.3333V16H16.6667V17.3333H11.3334ZM24.6667 5.33333H19.3201V2.66667L16.6534 0H11.3201L8.65341 2.66667V5.33333H3.33341C1.86675 5.33333 0.666748 6.53333 0.666748 8V12C0.666748 13.48 1.85341 14.6667 3.33341 14.6667H11.3334V12H16.6667V14.6667H24.6667C26.1334 14.6667 27.3334 13.4667 27.3334 12V8C27.3334 6.53333 26.1334 5.33333 24.6667 5.33333ZM16.6667 5.33333H11.3334V2.66667H16.6667V5.33333Z" fill="#3C42D3"/>
</svg>
