<svg width="24" height="29" viewBox="0 0 24 29" fill="none" xmlns="http://www.w3.org/2000/svg">
<path d="M21.3333 0.666748H2.66667C1.18667 0.666748 0 1.86675 0 3.33341V22.0001C0 23.4667 1.18667 24.6667 2.66667 24.6667H8L12 28.6667L16 24.6667H21.3333C22.8 24.6667 24 23.4667 24 22.0001V3.33341C24 1.86675 22.8 0.666748 21.3333 0.666748ZM13.3333 22.0001H10.6667V19.3334H13.3333V22.0001ZM16.0933 11.6667L14.8933 12.8934C13.9333 13.8667 13.3333 14.6667 13.3333 16.6667H10.6667V16.0001C10.6667 14.5334 11.2667 13.2001 12.2267 12.2267L13.88 10.5467C14.3733 10.0667 14.6667 9.40008 14.6667 8.66675C14.6667 7.20008 13.4667 6.00008 12 6.00008C10.5333 6.00008 9.33333 7.20008 9.33333 8.66675H6.66667C6.66667 5.72008 9.05333 3.33341 12 3.33341C14.9467 3.33341 17.3333 5.72008 17.3333 8.66675C17.3333 9.84008 16.8533 10.9067 16.0933 11.6667Z" fill="#3C42D3"/>
</svg>
