<svg width="32" height="32" viewBox="0 0 32 32" fill="none" xmlns="http://www.w3.org/2000/svg">
<path d="M27.9199 14.6667C27.3066 9.10671 22.8933 4.69337 17.3333 4.08004V1.33337H14.6666V4.08004C9.10658 4.69337 4.69325 9.10671 4.07992 14.6667H1.33325V17.3334H4.07992C4.69325 22.8934 9.10658 27.3067 14.6666 27.92V30.6667H17.3333V27.92C22.8933 27.3067 27.3066 22.8934 27.9199 17.3334H30.6666V14.6667H27.9199ZM15.9999 25.3334C10.8399 25.3334 6.66658 21.16 6.66658 16C6.66658 10.84 10.8399 6.66671 15.9999 6.66671C21.1599 6.66671 25.3333 10.84 25.3333 16C25.3333 21.16 21.1599 25.3334 15.9999 25.3334Z" fill="#3C42D3"/>
</svg>
