<svg width="22" height="22" viewBox="0 0 22 22" fill="none" xmlns="http://www.w3.org/2000/svg">
<path d="M10.9999 2.86671C12.5466 2.86671 13.7999 4.12004 13.7999 5.66671C13.7999 7.21337 12.5466 8.46671 10.9999 8.46671C9.45325 8.46671 8.19992 7.21337 8.19992 5.66671C8.19992 4.12004 9.45325 2.86671 10.9999 2.86671ZM10.9999 14.8667C14.9599 14.8667 19.1333 16.8134 19.1333 17.6667V19.1334H2.86659V17.6667C2.86659 16.8134 7.03992 14.8667 10.9999 14.8667ZM10.9999 0.333374C8.05325 0.333374 5.66658 2.72004 5.66658 5.66671C5.66658 8.61337 8.05325 11 10.9999 11C13.9466 11 16.3333 8.61337 16.3333 5.66671C16.3333 2.72004 13.9466 0.333374 10.9999 0.333374ZM10.9999 12.3334C7.43992 12.3334 0.333252 14.12 0.333252 17.6667V21.6667H21.6666V17.6667C21.6666 14.12 14.5599 12.3334 10.9999 12.3334Z" fill="#3C42D3"/>
</svg>
